<?xml version="1.0" standalone="no"?>
<!DOCTYPE svg PUBLIC "-//W3C//DTD SVG 20010904//EN"
 "http://www.w3.org/TR/2001/REC-SVG-20010904/DTD/svg10.dtd">
<svg version="1.0" xmlns="http://www.w3.org/2000/svg"
 width="260.000000pt" height="260.000000pt" viewBox="0 0 260.000000 260.000000"
 preserveAspectRatio="xMidYMid meet">
<metadata>
Created by potrace 1.11, written by Peter Selinger 2001-2013
</metadata>
<g transform="translate(0.000000,260.000000) scale(0.100000,-0.100000)"
fill="#000000" stroke="none">
<path d="M470 2584 c-110 -23 -205 -77 -290 -163 -86 -88 -132 -166 -160 -276
-19 -74 -20 -113 -19 -844 1 -615 3 -779 15 -831 42 -199 202 -374 404 -443
65 -22 67 -22 855 -24 877 -2 861 -3 995 64 54 27 96 58 150 113 86 86 132
165 160 275 19 74 20 113 19 844 -1 615 -3 779 -15 831 -46 217 -238 409 -454
454 -96 21 -1566 21 -1660 0z"/>
</g>
</svg>
